<svg width="620" height="720" viewBox="0 0 620 720" fill="none" xmlns="http://www.w3.org/2000/svg">
  <defs>
    <linearGradient id="bg" x1="0" y1="0" x2="1" y2="1">
      <stop offset="0%" stop-color="#f9e7d3" />
      <stop offset="100%" stop-color="#e7efff" />
    </linearGradient>
  </defs>
  <rect x="0" y="0" width="620" height="720" rx="60" fill="url(#bg)" />
  <circle cx="310" cy="260" r="130" fill="#ffffff" opacity="0.9" />
  <circle cx="310" cy="230" r="70" fill="#f3d6c2" />
  <rect x="170" y="320" width="280" height="220" rx="110" fill="#f3d6c2" />
  <path d="M210 190 C230 140 280 120 310 120 C340 120 390 140 410 190 C360 175 330 175 310 175 C290 175 260 175 210 190Z" fill="#2f2a26" opacity="0.9" />
  <circle cx="285" cy="230" r="8" fill="#2f2a26" />
  <circle cx="335" cy="230" r="8" fill="#2f2a26" />
  <path d="M290 265 C300 275 320 275 330 265" stroke="#2f2a26" stroke-width="6" stroke-linecap="round" />
  <rect x="120" y="560" width="380" height="70" rx="35" fill="#ffffff" opacity="0.85" />
</svg>
